<?xml version="1.0" standalone="no"?>
<!DOCTYPE svg PUBLIC "-//W3C//DTD SVG 1.1//EN" "http://www.w3.org/Graphics/SVG/1.1/DTD/svg11.dtd" >
<svg xmlns="http://www.w3.org/2000/svg">
<metadata>Generated by IcoMoon</metadata>
<defs>
<font id="RCNicon" horiz-adv-x="1024">
<font-face units-per-em="1024" ascent="960" descent="-64" />
<missing-glyph horiz-adv-x="1024" />
<glyph unicode="&#x20;" horiz-adv-x="512" d="" />
<glyph unicode="&#xe900;" glyph-name="dailymotiodailymotion" d="M758 319.091c-13.576-13.575-28.849-23.757-45.818-30.545-16.121-6.788-33.939-10.182-53.455-10.182s-37.333 3.394-53.455 10.182c-16.121 6.788-30.545 16.545-43.272 29.272s-22.485 27.576-29.272 44.546c-5.94 16.97-8.91 35.636-8.91 56 0 19.516 2.97 37.333 8.91 53.455 6.787 16.121 16.97 30.545 30.545 43.272 12.727 12.727 27.152 22.061 43.272 28 16.121 6.788 33.94 10.182 53.455 10.182 12.727 0 25.030-1.697 36.91-5.091 11.878-2.545 22.909-6.787 33.091-12.727 11.030-5.939 20.364-13.151 28-21.636 8.484-7.636 15.697-16.97 21.636-28 5.939-10.181 10.182-21.212 12.727-33.091 3.394-11.030 5.091-22.485 5.091-34.364 0-20.364-3.394-39.030-10.182-56-6.788-16.121-16.545-30.546-29.272-43.273zM788.545 865.091v-225.273c-11.878 11.030-23.758 20.787-35.636 29.272s-24.182 15.272-36.909 20.364c-12.727 5.091-26.304 8.909-40.727 11.455s-29.697 3.818-45.818 3.818c-25.455 0-49.636-3.394-72.546-10.181-22.909-5.939-44.545-15.272-64.909-28s-38.607-28-54.727-45.818c-16.121-16.97-29.697-36.485-40.727-58.546-11.879-21.212-20.788-44.121-26.727-68.727-5.091-24.606-7.637-50.061-7.637-76.363 0-27.152 2.546-53.030 7.637-77.637 5.939-24.606 14.424-47.939 25.454-70 11.879-22.061 25.455-41.575 40.727-58.546 16.121-16.97 34.364-31.818 54.727-44.545 21.213-12.727 43.273-22.485 66.182-29.272 23.758-5.94 49.213-8.91 76.363-8.91 38.182 0 70.424 6.364 96.728 19.091 27.151 12.727 48.364 31.818 63.636 57.273h2.545v-70.001h154v766.182l-161.637-35.636z" />
<glyph unicode="&#xe901;" glyph-name="star-outline" d="M512 303.36l-160.427-96.853 42.24 182.613-141.653 122.88 186.88 15.787 72.96 172.373 72.96-172.373 186.88-15.787-141.653-122.88 42.24-182.613zM938.667 565.76l-306.773 26.027-119.893 282.88-119.893-282.88-306.773-26.027 232.533-201.813-69.547-299.947 263.68 159.147 263.68-159.147-69.973 299.947 232.96 201.813z" />
<glyph unicode="&#xe902;" glyph-name="check" d="M896 661.333l-512-512-234.667 234.667 60.16 60.16 174.507-174.080 451.84 451.413 60.16-60.16z" />
<glyph unicode="&#xe903;" glyph-name="toggle-switch-outline" d="M725.333 704h-426.667c-141.227 0-256-114.773-256-256s114.773-256 256-256h426.667c141.227 0 256 114.773 256 256s-114.773 256-256 256zM725.333 277.333h-426.667c-94.293 0-170.667 76.373-170.667 170.667s76.373 170.667 170.667 170.667h426.667c94.293 0 170.667-76.373 170.667-170.667s-76.373-170.667-170.667-170.667zM725.333 576c-70.827 0-128-57.173-128-128s57.173-128 128-128 128 57.173 128 128-57.173 128-128 128z" />
<glyph unicode="&#xe904;" glyph-name="toggle-switch-off-outline" d="M725.333 704h-426.667c-141.227 0-256-114.773-256-256s114.773-256 256-256h426.667c141.227 0 256 114.773 256 256s-114.773 256-256 256zM725.333 277.333h-426.667c-94.293 0-170.667 76.373-170.667 170.667s76.373 170.667 170.667 170.667h426.667c94.293 0 170.667-76.373 170.667-170.667s-76.373-170.667-170.667-170.667zM298.667 576c-70.827 0-128-57.173-128-128s57.173-128 128-128 128 57.173 128 128-57.173 128-128 128z" />
<glyph unicode="&#xe905;" glyph-name="volume-off" d="M512 789.333l-89.173-89.173 89.173-89.173zM182.187 832l-54.187-54.187 201.813-201.813h-201.813v-256h170.667l213.333-213.333v287.147l181.333-181.76c-28.587-21.76-60.587-39.68-96-49.92v-88.32c58.88 13.653 112.213 40.533 157.013 77.227l87.467-87.040 54.187 54.187-384 384zM810.667 448c0-40.107-8.533-77.653-23.040-112.64l64.427-64.427c27.733 52.907 43.947 113.067 43.947 177.067 0 182.613-128 335.36-298.667 374.187v-87.893c123.307-36.693 213.333-151.040 213.333-286.293zM704 448c0 75.52-42.667 140.373-106.667 171.947v-94.293l104.533-104.533c2.133 8.533 2.133 17.92 2.133 26.88z" />
<glyph unicode="&#xe906;" glyph-name="volume-high" d="M597.333 822.187v-87.893c123.307-36.693 213.333-151.040 213.333-286.293s-90.027-249.173-213.333-285.867v-88.32c170.667 38.827 298.667 191.573 298.667 374.187s-128 335.36-298.667 374.187zM704 448c0 75.52-42.667 140.373-106.667 171.947v-342.613c64 30.293 106.667 95.573 106.667 170.667zM128 576v-256h170.667l213.333-213.333v682.667l-213.333-213.333h-170.667z" />
<glyph unicode="&#xe907;" glyph-name="bell-badge-outline" d="M810.667 234.667v221.867c-21.333-4.267-42.667-8.533-64-8.533h-21.333v-256h-426.667v298.667c0 119.467 93.867 213.333 213.333 213.333 4.267 55.467 29.867 102.4 64 140.8-12.8 17.067-38.4 29.867-64 29.867-46.933 0-85.333-38.4-85.333-85.333v-12.8c-128-38.4-213.333-153.6-213.333-285.867v-256l-85.333-85.333v-42.667h768v42.667l-85.333 85.333zM426.667 64c0-46.933 38.4-85.333 85.333-85.333s85.333 38.4 85.333 85.333h-170.667zM896 682.667c0-81.067-68.267-149.333-149.333-149.333s-149.333 68.267-149.333 149.333 68.267 149.333 149.333 149.333 149.333-68.267 149.333-149.333z" />
<glyph unicode="&#xe908;" glyph-name="bell-outline" d="M426.667 64h170.667c0-46.933-38.4-85.333-85.333-85.333s-85.333 38.4-85.333 85.333zM896 149.333v-42.667h-768v42.667l85.333 85.333v256c0 132.267 85.333 247.467 213.333 285.867v12.8c0 46.933 38.4 85.333 85.333 85.333s85.333-38.4 85.333-85.333v-12.8c128-38.4 213.333-153.6 213.333-285.867v-256l85.333-85.333zM725.333 490.667c0 119.467-93.867 213.333-213.333 213.333s-213.333-93.867-213.333-213.333v-298.667h426.667v298.667z" />
<glyph unicode="&#xe909;" glyph-name="instagram" d="M332.8 874.667h358.4c136.533 0 247.467-110.933 247.467-247.467v-358.4c0-136.672-110.795-247.467-247.467-247.467v0h-358.4c-136.533 0-247.467 110.933-247.467 247.467v358.4c0 136.672 110.795 247.467 247.467 247.467v0zM324.267 789.333c-84.831 0-153.6-68.769-153.6-153.6v0-375.467c0-84.907 68.693-153.6 153.6-153.6h375.467c84.831 0 153.6 68.769 153.6 153.6v0 375.467c0 84.907-68.693 153.6-153.6 153.6h-375.467zM736 725.333c29.455 0 53.333-23.878 53.333-53.333v0c0-29.455-23.878-53.333-53.333-53.333v0c-29.455 0-53.333 23.878-53.333 53.333v0c0 29.455 23.878 53.333 53.333 53.333v0zM512 661.333c117.821 0 213.333-95.513 213.333-213.333v0c0-117.821-95.513-213.333-213.333-213.333v0c-117.821 0-213.333 95.513-213.333 213.333v0c0 117.821 95.513 213.333 213.333 213.333v0zM512 576c-70.692 0-128-57.308-128-128v0c0-70.692 57.308-128 128-128v0c70.692 0 128 57.308 128 128v0c0 70.692-57.308 128-128 128v0z" />
<glyph unicode="&#xe90a;" glyph-name="youtube" d="M426.667 320l221.44 128-221.44 128v-256zM919.893 654.080c5.547-20.053 9.387-46.933 11.947-81.067 2.987-34.133 4.267-63.573 4.267-89.173l2.56-35.84c0-93.44-6.827-162.133-18.773-206.080-10.667-38.4-35.413-63.147-73.813-73.813-20.053-5.547-56.747-9.387-113.067-11.947-55.467-2.987-106.24-4.267-153.173-4.267l-67.84-2.56c-178.773 0-290.133 6.827-334.080 18.773-38.4 10.667-63.147 35.413-73.813 73.813-5.547 20.053-9.387 46.933-11.947 81.067-2.987 34.133-4.267 63.573-4.267 89.173l-2.56 35.84c0 93.44 6.827 162.133 18.773 206.080 10.667 38.4 35.413 63.147 73.813 73.813 20.053 5.547 56.747 9.387 113.067 11.947 55.467 2.987 106.24 4.267 153.173 4.267l67.84 2.56c178.773 0 290.133-6.827 334.080-18.773 38.4-10.667 63.147-35.413 73.813-73.813z" />
<glyph unicode="&#xe90b;" glyph-name="linkedin" d="M810.667 832c47.128 0 85.333-38.205 85.333-85.333v0-597.333c0-47.128-38.205-85.333-85.333-85.333v0h-597.333c-47.128 0-85.333 38.205-85.333 85.333v0 597.333c0 47.128 38.205 85.333 85.333 85.333v0h597.333zM789.333 170.667v226.133c0 76.819-62.274 139.093-139.093 139.093v0c-36.267 0-78.507-22.187-98.987-55.467v47.36h-119.040v-357.12h119.040v210.347c0 32.853 26.453 59.733 59.307 59.733 32.99 0 59.733-26.744 59.733-59.733v0-210.347h119.040zM293.547 594.773c39.588 0 71.68 32.092 71.68 71.68v0c0 39.68-32 72.107-71.68 72.107-39.823 0-72.107-32.283-72.107-72.107v0c0-39.68 32.427-71.68 72.107-71.68zM352.853 170.667v357.12h-118.187v-357.12h118.187z" />
<glyph unicode="&#xe90c;" glyph-name="facebook" d="M512 872.96c-234.667 0-426.667-191.573-426.667-427.52 0-213.333 156.16-390.4 360.107-422.4v298.667h-108.373v123.733h108.373v94.293c0 107.093 63.573 165.973 161.28 165.973 46.507 0 95.147-8.107 95.147-8.107v-105.387h-53.76c-52.907 0-69.547-32.853-69.547-66.56v-80.213h118.613l-19.2-123.733h-99.413v-298.667c205.281 33.318 360.108 209.3 360.108 421.443 0 0.336 0 0.673-0.001 1.009v-0.052c0 235.947-192 427.52-426.667 427.52z" />
<glyph unicode="&#xe90d;" glyph-name="twitter" d="M958.293 704c-32.853-14.933-68.267-24.747-104.96-29.44 37.547 22.613 66.56 58.453 80.213 101.547-35.413-21.333-74.667-36.267-116.053-44.8-33.707 36.693-81.067 58.027-134.827 58.027-100.267 0-182.187-81.92-182.187-183.040 0-14.507 1.707-28.587 4.693-41.813-151.893 7.68-287.147 80.64-377.173 191.147-15.787-26.88-24.747-58.453-24.747-91.733 0-63.573 32-119.893 81.493-151.893-30.293 0-58.453 8.533-83.2 21.333 0 0 0 0 0-1.28 0-88.747 63.147-162.987 146.773-179.627-15.36-4.267-31.573-6.4-48.213-6.4-11.52 0-23.040 1.28-34.133 3.413 23.040-72.107 90.027-125.867 170.667-127.147-62.293-49.493-141.227-78.507-227.413-78.507-14.507 0-29.013 0.853-43.52 2.56 81.067-52.053 177.493-82.347 280.747-82.347 336.213 0 520.96 279.040 520.96 520.96 0 8.107 0 15.787-0.427 23.893 35.84 25.6 66.56 58.027 91.307 95.147z" />
<glyph unicode="&#xe90e;" glyph-name="trash-can-outline" d="M384 832v-42.667h-213.333v-85.333h42.667v-554.667c0-47.128 38.205-85.333 85.333-85.333v0h426.667c47.128 0 85.333 38.205 85.333 85.333v0 554.667h42.667v85.333h-213.333v42.667h-256zM298.667 704h426.667v-554.667h-426.667v554.667zM384 618.667v-384h85.333v384h-85.333zM554.667 618.667v-384h85.333v384h-85.333z" />
<glyph unicode="&#xe90f;" glyph-name="calendar-blank-outline" d="M810.667 832h-42.667v85.333h-85.333v-85.333h-341.333v85.333h-85.333v-85.333h-42.667c-47.36 0-85.333-38.4-85.333-85.333v-597.333c0-47.36 38.4-85.333 85.333-85.333h597.333c47.36 0 85.333 37.973 85.333 85.333v597.333c0 46.933-37.973 85.333-85.333 85.333zM810.667 149.333h-597.333v426.667h597.333v-426.667zM810.667 661.333h-597.333v85.333h597.333v-85.333z" />
<glyph unicode="&#xe910;" glyph-name="open-in-new" d="M597.333 832v-85.333h153.173l-419.413-419.413 60.16-60.16 419.413 419.413v-153.173h85.333v298.667zM810.667 149.333h-597.333v597.333h298.667v85.333h-298.667c-47.36 0-85.333-38.4-85.333-85.333v-597.333c0-47.128 38.205-85.333 85.333-85.333v0h597.333c47.128 0 85.333 38.205 85.333 85.333v0 298.667h-85.333v-298.667z" />
<glyph unicode="&#xe911;" glyph-name="cog-outline" d="M512 618.667c94.257 0 170.667-76.41 170.667-170.667v0c0-94.257-76.41-170.667-170.667-170.667v0c-94.257 0-170.667 76.41-170.667 170.667v0c0 94.257 76.41 170.667 170.667 170.667v0zM512 533.333c-47.128 0-85.333-38.205-85.333-85.333v0c0-47.128 38.205-85.333 85.333-85.333v0c47.128 0 85.333 38.205 85.333 85.333v0c0 47.128-38.205 85.333-85.333 85.333v0zM426.667 21.333c-10.667 0-19.627 7.68-21.333 17.92l-15.787 113.067c-26.88 10.667-49.92 25.173-72.107 42.24l-106.24-43.093c-9.387-3.413-20.907 0-26.027 9.387l-85.333 147.627c-5.547 9.387-2.987 20.907 5.12 27.307l90.027 70.827-2.987 41.387 2.987 42.667-90.027 69.547c-8.107 6.4-10.667 17.92-5.12 27.307l85.333 147.627c5.12 9.387 16.64 13.227 26.027 9.387l106.24-42.667c22.187 16.64 45.227 31.147 72.107 41.813l15.787 113.067c1.707 10.24 10.667 17.92 21.333 17.92h170.667c10.667 0 19.627-7.68 21.333-17.92l15.787-113.067c26.88-10.667 49.92-25.173 72.107-41.813l106.24 42.667c9.387 3.84 20.907 0 26.027-9.387l85.333-147.627c5.547-9.387 2.987-20.907-5.12-27.307l-90.027-69.547 2.987-42.667-2.987-42.667 90.027-69.547c8.107-6.4 10.667-17.92 5.12-27.307l-85.333-147.627c-5.12-9.387-16.64-13.227-26.027-9.387l-106.24 42.667c-22.187-16.64-45.227-31.147-72.107-41.813l-15.787-113.067c-1.707-10.24-10.667-17.92-21.333-17.92h-170.667zM480 789.333l-15.787-111.36c-51.2-10.667-96.427-37.973-129.28-75.947l-102.827 44.373-32-55.467 90.027-66.133c-17.067-49.92-17.067-104.107 0-153.6l-90.453-66.56 32-55.467 103.68 44.373c32.853-37.547 77.653-64.853 128.427-75.093l15.787-111.787h64.853l15.787 111.36c50.773 10.667 95.573 37.973 128.427 75.52l103.68-44.373 32 55.467-90.453 66.133c17.067 49.92 17.067 104.107 0 154.027l90.027 66.133-32 55.467-102.827-44.373c-32.853 37.973-78.080 65.28-129.28 75.52l-15.787 111.787h-64z" />
<glyph unicode="&#xe912;" glyph-name="message-text-outline" d="M853.333 874.667c47.128 0 85.333-38.205 85.333-85.333v0-512c0-47.128-38.205-85.333-85.333-85.333v0h-597.333l-170.667-170.667v768c0 47.36 38.4 85.333 85.333 85.333h682.667zM170.667 789.333v-561.92l49.92 49.92h632.747v512h-682.667zM256 661.333h512v-85.333h-512v85.333zM256 490.667h384v-85.333h-384v85.333z" />
<glyph unicode="&#xe913;" glyph-name="email-outline" d="M938.667 704c0 46.933-38.4 85.333-85.333 85.333h-682.667c-46.933 0-85.333-38.4-85.333-85.333v-512c0-46.933 38.4-85.333 85.333-85.333h682.667c46.933 0 85.333 38.4 85.333 85.333v512zM853.333 704l-341.333-213.333-341.333 213.333h682.667zM853.333 192h-682.667v426.667l341.333-213.333 341.333 213.333v-426.667z" />
<glyph unicode="&#xe914;" glyph-name="cloud-arrow-up-outline" d="M171.947 446.72c-29.44-29.013-43.947-64-43.947-105.387s14.507-76.373 43.947-106.667c29.013-28.16 64-42.667 105.387-42.667h281.173c-2.133-14.080-3.84-28.16-3.84-42.667s1.707-28.587 3.84-42.667h-281.173c-64 0-119.893 21.333-165.973 66.987-45.653 44.8-68.693 99.84-68.693 164.267 0 55.467 16.64 104.96 49.92 148.48s78.080 71.253 131.413 83.2c17.92 65.28 53.333 118.187 106.667 158.72s113.92 61.013 181.333 61.013c83.2 0 153.6-29.013 211.627-87.040s87.040-128.427 87.040-211.627c49.067-5.547 89.6-26.88 122.027-64 21.76-24.32 35.84-51.627 42.667-81.92-44.373 37.547-100.693 60.587-164.693 60.587-4.693 0-8.96 0-13.653 0-2.56 0-5.12 0-7.68 0h-64v85.333c0 58.88-21.333 109.227-62.293 151.040-41.813 40.96-92.16 62.293-151.040 62.293s-109.227-21.333-151.040-62.293c-40.96-41.813-62.293-92.16-62.293-151.040h-21.333c-41.387 0-76.373-14.507-105.387-43.947zM682.667 192h85.333v-170.667h85.333v170.667h85.333l-128 128-128-128z" />
<glyph unicode="&#xe915;" glyph-name="close-circle-outline" d="M512 106.667c-188.16 0-341.333 153.173-341.333 341.333s153.173 341.333 341.333 341.333c188.16 0 341.333-153.173 341.333-341.333s-153.173-341.333-341.333-341.333zM512 874.667c-235.947 0-426.667-190.72-426.667-426.667s190.72-426.667 426.667-426.667c235.947 0 426.667 190.72 426.667 426.667s-190.72 426.667-426.667 426.667zM622.507 618.667l-110.507-110.507-110.507 110.507-60.16-60.16 110.507-110.507-110.507-110.507 60.16-60.16 110.507 110.507 110.507-110.507 60.16 60.16-110.507 110.507 110.507 110.507-60.16 60.16z" />
<glyph unicode="&#xe916;" glyph-name="account-circle-outline" d="M512 874.667c-235.641 0-426.667-191.025-426.667-426.667v0c0-235.641 191.025-426.667 426.667-426.667v0c235.641 0 426.667 191.025 426.667 426.667v0c0 235.641-191.025 426.667-426.667 426.667v0zM301.653 180.053c18.347 38.4 130.133 75.947 210.347 75.947s192-37.547 210.347-75.947c-58.027-46.080-130.987-73.387-210.347-73.387s-152.32 27.307-210.347 73.387zM783.36 241.92c-61.013 74.24-209.067 99.413-271.36 99.413s-210.347-25.173-271.36-99.413c-43.52 56.747-69.973 128.427-69.973 206.080 0 188.16 153.173 341.333 341.333 341.333s341.333-153.173 341.333-341.333c0-77.653-26.453-149.333-69.973-206.080zM512 704c-82.773 0-149.333-66.56-149.333-149.333s66.56-149.333 149.333-149.333c82.773 0 149.333 66.56 149.333 149.333s-66.56 149.333-149.333 149.333zM512 490.667c-35.346 0-64 28.654-64 64v0c0 35.346 28.654 64 64 64v0c35.346 0 64-28.654 64-64v0c0-35.346-28.654-64-64-64v0z" />
<glyph unicode="&#xe917;" glyph-name="tray-arrow-up" d="M85.333 448h85.333v-213.333h682.667v213.333h85.333v-213.333c0-47.36-37.973-85.333-85.333-85.333h-682.667c-46.933 0-85.333 37.973-85.333 85.333v213.333zM512 874.667l-236.373-232.96 60.587-60.587 133.12 133.547v-394.667h85.333v394.667l133.547-133.547 60.587 61.013-236.8 232.533z" />
<glyph unicode="&#xe918;" glyph-name="tray-arrow-down" d="M85.333 448h85.333v-213.333h682.667v213.333h85.333v-213.333c0-47.36-37.973-85.333-85.333-85.333h-682.667c-46.933 0-85.333 37.973-85.333 85.333v213.333zM512 320l236.8 232.96-60.587 60.16-133.547-133.12v394.667h-85.333v-394.667l-133.12 133.12-60.587-60.587 236.373-232.533z" />
<glyph unicode="&#xe919;" glyph-name="arrow-collapse-up" d="M174.080 451.413l337.92 337.92 337.92-337.92-60.587-60.16-234.667 234.667v-604.587h-85.333v604.587l-234.667-234.667-60.587 60.16zM512 789.333h426.667v85.333h-853.333v-85.333h426.667z" />
<glyph unicode="&#xe91a;" glyph-name="arrow-collapse-down" d="M849.92 444.587l-337.92-337.92-337.92 337.92 60.587 60.16 234.667-234.667v604.587h85.333v-604.587l234.667 235.093 60.587-60.587zM512 106.667h-426.667v-85.333h853.333v85.333h-426.667z" />
<glyph unicode="&#xe91b;" glyph-name="pencil-outline" d="M599.893 576l40.107-40.107-387.413-386.56h-39.253v39.253l386.56 387.413zM753.493 832c-10.667 0-21.76-4.267-29.867-12.373l-78.080-78.080 160-160 78.080 78.080c16.64 16.64 16.64 44.373 0 60.16l-99.84 99.84c-8.533 8.533-19.2 12.373-30.293 12.373zM599.893 695.893l-471.893-471.893v-160h160l471.893 471.893-160 160z" />
<glyph unicode="&#xe91c;" glyph-name="replay" d="M512 746.667v170.667l-213.333-213.333 213.333-213.333v170.667c141.385 0 256-114.615 256-256v0c0-141.385-114.615-256-256-256v0c-141.385 0-256 114.615-256 256v0h-85.333c0-188.513 152.82-341.333 341.333-341.333v0c188.513 0 341.333 152.82 341.333 341.333v0c0 188.513-152.82 341.333-341.333 341.333v0z" />
<glyph unicode="&#xe91d;" glyph-name="magnify" d="M405.333 832c153.167 0 277.333-124.166 277.333-277.333v0c0-68.693-25.173-131.84-66.56-180.48l11.52-11.52h33.707l213.333-213.333-64-64-213.333 213.333v33.707l-11.52 11.52c-48.64-41.387-111.787-66.56-180.48-66.56-153.167 0-277.333 124.166-277.333 277.333v0c0 153.167 124.166 277.333 277.333 277.333v0zM405.333 746.667c-106.667 0-192-85.333-192-192s85.333-192 192-192c106.667 0 192 85.333 192 192s-85.333 192-192 192z" />
<glyph unicode="&#xe91e;" glyph-name="close" d="M810.667 686.507l-60.16 60.16-238.507-238.507-238.507 238.507-60.16-60.16 238.507-238.507-238.507-238.507 60.16-60.16 238.507 238.507 238.507-238.507 60.16 60.16-238.507 238.507 238.507 238.507z" />
<glyph unicode="&#xe91f;" glyph-name="alert-outline" d="M512 874.667l-469.333-810.667h938.667zM512 704l321.28-554.667h-642.56zM469.333 533.333v-170.667h85.333v170.667zM469.333 277.333v-85.333h85.333v85.333z" />
<glyph unicode="&#xe920;" glyph-name="check-circle-outline" d="M512 874.667c-234.667 0-426.667-192-426.667-426.667s192-426.667 426.667-426.667 426.667 192 426.667 426.667-192 426.667-426.667 426.667zM512 106.667c-188.16 0-341.333 153.173-341.333 341.333s153.173 341.333 341.333 341.333 341.333-153.173 341.333-341.333-153.173-341.333-341.333-341.333zM707.84 636.587l-281.173-281.173-110.507 110.080-60.16-60.16 170.667-170.667 341.333 341.333-60.16 60.587z" />
<glyph unicode="&#xe921;" glyph-name="alert-circle-outline" d="M469.333 320h85.333v-85.333h-85.333v85.333zM469.333 661.333h85.333v-256h-85.333v256zM512 874.667c-235.947 0-426.667-192-426.667-426.667 0-235.641 191.025-426.667 426.667-426.667v0c235.641 0 426.667 191.025 426.667 426.667v0c0 235.641-191.025 426.667-426.667 426.667v0zM512 106.667c-188.513 0-341.333 152.82-341.333 341.333v0c0 188.513 152.82 341.333 341.333 341.333v0c188.513 0 341.333-152.82 341.333-341.333v0c0-188.513-152.82-341.333-341.333-341.333v0z" />
<glyph unicode="&#xe922;" glyph-name="information-outline" d="M469.333 576h85.333v85.333h-85.333zM512 106.667c-188.16 0-341.333 153.173-341.333 341.333s153.173 341.333 341.333 341.333c188.16 0 341.333-153.173 341.333-341.333s-153.173-341.333-341.333-341.333zM512 874.667c-235.641 0-426.667-191.025-426.667-426.667v0c0-235.641 191.025-426.667 426.667-426.667v0c235.641 0 426.667 191.025 426.667 426.667v0c0 235.641-191.025 426.667-426.667 426.667v0zM469.333 234.667h85.333v256h-85.333v-256z" />
<glyph unicode="&#xe923;" glyph-name="menu" d="M128 704h768v-85.333h-768v85.333zM128 490.667h768v-85.333h-768v85.333zM128 277.333h768v-85.333h-768v85.333z" />
<glyph unicode="&#xe924;" glyph-name="dots-vertical" d="M512 277.333c47.128 0 85.333-38.205 85.333-85.333v0c0-47.128-38.205-85.333-85.333-85.333v0c-47.128 0-85.333 38.205-85.333 85.333v0c0 47.128 38.205 85.333 85.333 85.333v0zM512 533.333c47.128 0 85.333-38.205 85.333-85.333v0c0-47.128-38.205-85.333-85.333-85.333v0c-47.128 0-85.333 38.205-85.333 85.333v0c0 47.128 38.205 85.333 85.333 85.333v0zM512 789.333c47.128 0 85.333-38.205 85.333-85.333v0c0-47.128-38.205-85.333-85.333-85.333v0c-47.128 0-85.333 38.205-85.333 85.333v0c0 47.128 38.205 85.333 85.333 85.333v0z" />
<glyph unicode="&#xe925;" glyph-name="dots-horizontal" d="M682.667 448c0 47.128 38.205 85.333 85.333 85.333v0c47.128 0 85.333-38.205 85.333-85.333v0c0-47.128-38.205-85.333-85.333-85.333v0c-47.128 0-85.333 38.205-85.333 85.333v0zM426.667 448c0 47.128 38.205 85.333 85.333 85.333v0c47.128 0 85.333-38.205 85.333-85.333v0c0-47.128-38.205-85.333-85.333-85.333v0c-47.128 0-85.333 38.205-85.333 85.333v0zM170.667 448c0 47.128 38.205 85.333 85.333 85.333v0c47.128 0 85.333-38.205 85.333-85.333v0c0-47.128-38.205-85.333-85.333-85.333v0c-47.128 0-85.333 38.205-85.333 85.333v0z" />
<glyph unicode="&#xe926;" glyph-name="minus" d="M810.667 405.333h-597.333v85.333h597.333v-85.333z" />
<glyph unicode="&#xe927;" glyph-name="plus" d="M810.667 405.333h-256v-256h-85.333v256h-256v85.333h256v256h85.333v-256h256v-85.333z" />
<glyph unicode="&#xe928;" glyph-name="arrow-up" d="M554.667 106.667h-85.333v512l-234.667-234.667-60.587 60.587 337.92 337.92 337.92-337.92-60.587-60.587-234.667 234.667v-512z" />
<glyph unicode="&#xe929;" glyph-name="arrow-down" d="M469.333 789.333h85.333v-512l234.667 234.667 60.587-60.587-337.92-337.92-337.92 337.92 60.587 60.587 234.667-234.667v512z" />
<glyph unicode="&#xe92a;" glyph-name="eye-off-outline" d="M85.333 735.147l54.613 54.187 713.387-713.387-54.187-54.613-131.413 131.413c-49.067-16.213-101.12-24.747-155.733-24.747-213.333 0-395.52 132.693-469.333 320 29.44 75.093 76.373 141.227 136.107 193.707l-93.44 93.44zM512 576c70.692 0 128-57.308 128-128v0c0-14.933-2.56-29.44-7.253-42.667l-163.413 163.413c13.227 4.693 27.733 7.253 42.667 7.253zM512 768c213.333 0 395.52-132.693 469.333-320-34.987-88.747-94.293-165.547-170.667-221.44l-60.587 61.013c58.027 40.107 105.813 94.72 138.24 160.427-70.4 143.36-215.893 234.667-376.32 234.667-46.507 0-92.16-7.68-134.827-21.333l-65.707 65.28c61.44 26.453 129.28 41.387 200.533 41.387zM135.68 448c70.4-143.36 215.893-234.667 376.32-234.667 29.44 0 58.453 2.987 85.333 8.96l-97.28 97.707c-61.013 6.4-109.653 55.040-116.053 116.053l-145.067 145.493c-42.24-36.267-77.653-81.493-103.253-133.547z" />
<glyph unicode="&#xe92b;" glyph-name="eye-outline" d="M512 576c70.692 0 128-57.308 128-128v0c0-70.692-57.308-128-128-128v0c-70.692 0-128 57.308-128 128v0c0 70.692 57.308 128 128 128v0zM512 768c213.333 0 395.52-132.693 469.333-320-73.813-187.307-256-320-469.333-320s-395.52 132.693-469.333 320c73.813 187.307 256 320 469.333 320zM135.68 448c70.4-143.36 215.893-234.667 376.32-234.667s305.92 91.307 376.32 234.667c-70.4 143.36-215.893 234.667-376.32 234.667s-305.92-91.307-376.32-234.667z" />
<glyph unicode="&#xe92c;" glyph-name="chevron-up" d="M316.16 302.507l195.84 195.413 195.84-195.413 60.16 60.16-256 256-256-256 60.16-60.16z" />
<glyph unicode="&#xe92d;" glyph-name="chevron-right" d="M366.507 252.587l195.413 195.413-195.413 195.84 60.16 60.16 256-256-256-256-60.16 60.587z" />
<glyph unicode="&#xe92e;" glyph-name="chevron-left" d="M657.493 252.587l-195.413 195.413 195.413 195.84-60.16 60.16-256-256 256-256 60.16 60.587z" />
<glyph unicode="&#xe92f;" glyph-name="chevron-down" d="M316.16 593.92l195.84-195.84 195.84 195.84 60.16-60.587-256-256-256 256 60.16 60.587z" />
<glyph unicode="&#xe930;" glyph-name="filter-remove" d="M629.76 71.253l121.173 120.747-121.173 120.747 60.16 60.16 120.747-119.893 120.747 119.893 60.16-60.16-119.893-120.747 119.893-120.747-60.16-60.16-120.747 121.173-120.747-121.173-60.16 60.16zM512 448v-336.213c1.707-12.8-2.56-26.453-12.373-35.413-16.64-16.64-43.52-16.64-60.16 0l-85.76 85.76c-9.813 9.813-14.080 23.040-12.373 35.413v250.453h-1.28l-245.76 314.88c-14.507 18.347-11.093 45.227 7.253 59.733 8.107 5.973 17.067 9.387 26.453 9.387v0h597.333c9.387 0 18.347-3.413 26.453-9.387 18.347-14.507 21.76-41.387 7.253-59.733l-245.76-314.88h-1.28z" />
<glyph unicode="&#xe931;" glyph-name="filter" d="M597.333 448v-336.213c1.707-12.8-2.56-26.453-12.373-35.413-16.64-16.64-43.52-16.64-60.16 0l-85.76 85.76c-9.813 9.813-14.080 23.040-12.373 35.413v250.453h-1.28l-245.76 314.88c-14.507 18.347-11.093 45.227 7.253 59.733 8.107 5.973 17.067 9.387 26.453 9.387v0h597.333c9.387 0 18.347-3.413 26.453-9.387 18.347-14.507 21.76-41.387 7.253-59.733l-245.76-314.88h-1.28z" />
<glyph unicode="&#xe932;" glyph-name="filter-outline" d="M640 111.787c1.707-12.8-2.56-26.453-12.373-35.413-16.64-16.64-43.52-16.64-60.16 0l-171.093 171.093c-9.813 9.813-14.080 23.040-12.373 35.413v218.453l-204.373 261.547c-14.507 18.347-11.093 45.227 7.253 59.733 8.107 5.973 17.067 9.387 26.453 9.387v0h597.333c9.387 0 18.347-3.413 26.453-9.387 18.347-14.507 21.76-41.387 7.253-59.733l-204.373-261.547v-389.547zM300.373 746.667l168.96-215.893v-235.52l85.333-85.333v321.28l168.96 215.467h-423.253z" />
<glyph unicode="&#xe933;" glyph-name="microphone" d="M512 874.667c70.692 0 128-57.308 128-128v0-256c0-70.692-57.308-128-128-128v0c-70.692 0-128 57.308-128 128v0 256c0 70.692 57.308 128 128 128v0zM810.667 490.667c0-150.613-111.36-274.773-256-295.68v-130.987h-85.333v130.987c-144.64 20.907-256 145.067-256 295.68h85.333c0-117.821 95.513-213.333 213.333-213.333v0c117.821 0 213.333 95.513 213.333 213.333v0h85.333z" />
<glyph unicode="&#xe934;" glyph-name="microphone-outline" d="M738.133 490.667c0-128-108.373-217.6-226.133-217.6s-226.133 89.6-226.133 217.6h-72.533c0-145.493 116.053-265.813 256-286.72v-139.947h85.333v139.947c139.947 20.907 256 141.227 256 286.72zM460.8 750.933c0 28.16 23.040 51.2 51.2 51.2s51.2-23.040 51.2-51.2l-0.427-264.533c0-28.16-22.613-51.2-50.773-51.2s-51.2 23.040-51.2 51.2zM512 362.667c70.692 0 128 57.308 128 128v0 256c0 70.692-57.308 128-128 128v0c-70.692 0-128-57.308-128-128v0-256c0-70.692 57.308-128 128-128v0z" />
<glyph unicode="&#xe935;" glyph-name="sort-descending" d="M810.667 661.333h128l-170.667 170.667-170.667-170.667h128v-597.333h85.333zM85.333 234.667h426.667v-85.333h-426.667zM256 746.667v-85.333h-170.667v85.333zM85.333 490.667h298.667v-85.333h-298.667v85.333z" />
<glyph unicode="&#xe936;" glyph-name="sort-ascending" d="M810.667 234.667h128l-170.667-170.667-170.667 170.667h128v597.333h85.333zM85.333 234.667h426.667v-85.333h-426.667zM256 746.667v-85.333h-170.667v85.333zM85.333 490.667h298.667v-85.333h-298.667v85.333z" />
<glyph unicode="&#xe937;" glyph-name="sort" d="M768 64l-170.667 170.667h128v426.667h-128l170.667 170.667 170.667-170.667h-128v-426.667h128zM85.333 149.333v85.333h426.667v-85.333zM85.333 405.333v85.333h298.667v-85.333zM85.333 661.333v85.333h170.667v-85.333h-170.667z" />
<glyph unicode="&#xe938;" glyph-name="checkbox-marked" d="M426.667 234.667l-213.333 213.333 60.16 60.587 153.173-153.173 323.84 323.84 60.16-60.587zM810.667 832h-597.333c-47.36 0-85.333-37.973-85.333-85.333v-597.333c0-47.128 38.205-85.333 85.333-85.333v0h597.333c47.128 0 85.333 38.205 85.333 85.333v0 597.333c0 47.36-38.4 85.333-85.333 85.333z" />
<glyph unicode="&#xe939;" glyph-name="checkbox-blank-outline" d="M810.667 832h-597.333c-47.36 0-85.333-37.973-85.333-85.333v-597.333c0-47.128 38.205-85.333 85.333-85.333v0h597.333c47.128 0 85.333 38.205 85.333 85.333v0 597.333c0 47.36-38.4 85.333-85.333 85.333zM810.667 746.667v-597.333h-597.333v597.333h597.333z" />
<glyph unicode="&#xe93a;" glyph-name="radiobox-marked" d="M512 106.667c-188.513 0-341.333 152.82-341.333 341.333v0c0 188.513 152.82 341.333 341.333 341.333v0c188.513 0 341.333-152.82 341.333-341.333v0c0-188.513-152.82-341.333-341.333-341.333v0zM512 874.667c-235.641 0-426.667-191.025-426.667-426.667v0c0-235.641 191.025-426.667 426.667-426.667v0c235.641 0 426.667 191.025 426.667 426.667v0c0 235.641-191.025 426.667-426.667 426.667v0zM512 661.333c-117.821 0-213.333-95.513-213.333-213.333v0c0-117.821 95.513-213.333 213.333-213.333v0c117.821 0 213.333 95.513 213.333 213.333v0c0 117.821-95.513 213.333-213.333 213.333v0z" />
<glyph unicode="&#xe93b;" glyph-name="radiobox-blank" d="M512 106.667c-188.513 0-341.333 152.82-341.333 341.333v0c0 188.513 152.82 341.333 341.333 341.333v0c188.513 0 341.333-152.82 341.333-341.333v0c0-188.513-152.82-341.333-341.333-341.333v0zM512 874.667c-235.641 0-426.667-191.025-426.667-426.667v0c0-235.641 191.025-426.667 426.667-426.667v0c235.641 0 426.667 191.025 426.667 426.667v0c0 235.641-191.025 426.667-426.667 426.667v0z" />
<glyph unicode="&#xe93c;" glyph-name="backburger" d="M213.333 405.333l170.667-170.667-59.733-60.587-273.92 273.92 273.92 273.92 59.733-60.587-170.667-170.667h682.667v-85.333h-682.667zM896 704v-85.333h-426.667v85.333h426.667zM896 277.333v-85.333h-426.667v85.333h426.667z" />
<glyph unicode="&#xe93d;" glyph-name="arrow-collapse-vertical" d="M170.667 448h682.667v-85.333h-682.667v85.333zM170.667 576h682.667v-85.333h-682.667v85.333zM682.667 789.333l-170.667-170.667-170.667 170.667h128v128h85.333v-128h128zM341.333 149.333l170.667 170.667 170.667-170.667h-128v-128h-85.333v128h-128z" />
<glyph unicode="&#xe93e;" glyph-name="arrow-expand-vertical" d="M554.667 576v-256h128l-170.667-170.667-170.667 170.667h128v256h-128l170.667 170.667 170.667-170.667h-128zM170.667 874.667h682.667v-85.333h-682.667v85.333zM170.667 106.667h682.667v-85.333h-682.667v85.333z" />
<glyph unicode="&#xe93f;" glyph-name="arrow-right" d="M170.667 490.667v-85.333h512l-234.667-234.667 60.587-60.587 337.92 337.92-337.92 337.92-60.587-60.587 234.667-234.667h-512z" />
<glyph unicode="&#xe940;" glyph-name="logout" d="M682.667 234.667v128h-298.667v170.667h298.667v128l213.333-213.333-213.333-213.333zM597.333 874.667c47.128 0 85.333-38.205 85.333-85.333v0-85.333h-85.333v85.333h-384v-682.667h384v85.333h85.333v-85.333c0-47.128-38.205-85.333-85.333-85.333v0h-384c-47.128 0-85.333 38.205-85.333 85.333v0 682.667c0 47.128 38.205 85.333 85.333 85.333v0h384z" />
<glyph unicode="&#xe941;" glyph-name="translate-variant-1" d="M469.333 917.333h-341.333c-46.933 0-85.333-38.4-85.333-85.333v-512l128 128h213.333v42.667c0 93.867 76.373 170.667 170.667 170.667v170.667c0 46.933-38.4 85.333-85.333 85.333zM469.333 789.333h-64c-14.507-50.773-40.96-98.133-77.653-139.093l-0.853-0.853 53.76-53.333-15.787-43.093-66.133 65.707-106.667-106.667-29.44 31.147 107.947 106.24c-26.453 29.44-47.787 62.293-63.147 97.28h42.24c13.227-25.6 29.44-49.92 49.067-71.68 30.72 34.133 52.907 72.96 66.987 114.347h-237.653v42.667h149.333v42.667h42.667v-42.667h149.333v-42.667zM896 576h-341.333c-46.933 0-85.333-38.4-85.333-85.333v-298.667c0-46.933 38.4-85.333 85.333-85.333h298.667l128-128v512c0 46.933-38.4 85.333-85.333 85.333zM837.547 149.333l-36.267 96h-151.893l-35.84-96h-64l143.787 384h64l144.213-384h-64zM725.333 448l52.053-138.667h-103.68l51.627 138.667z" />
<glyph unicode="&#xe942;" glyph-name="drag-vertical" d="M384 832h85.333v-85.333h-85.333v85.333zM554.667 832h85.333v-85.333h-85.333v85.333zM384 661.333h85.333v-85.333h-85.333v85.333zM554.667 661.333h85.333v-85.333h-85.333v85.333zM384 490.667h85.333v-85.333h-85.333v85.333zM554.667 490.667h85.333v-85.333h-85.333v85.333zM384 320h85.333v-85.333h-85.333v85.333zM554.667 320h85.333v-85.333h-85.333v85.333zM384 149.333h85.333v-85.333h-85.333v85.333zM554.667 149.333h85.333v-85.333h-85.333v85.333z" />
<glyph unicode="&#xe943;" glyph-name="arrow-expand-left" d="M853.333 21.333h85.333v853.333h-85.333v-384h-604.587l234.667 234.667-60.16 60.587-337.92-337.92 337.92-337.92 60.16 60.587-234.667 234.667h604.587v-384z" />
<glyph unicode="" glyph-name="arrow-expand-left" d="M853.333 21.333h85.333v853.333h-85.333v-384h-604.587l234.667 234.667-60.16 60.587-337.92-337.92 337.92-337.92 60.16 60.587-234.667 234.667h604.587v-384z" />
<glyph unicode="mdi-youtube" glyph-name="youtube" d="M426.667 320l221.44 128-221.44 128v-256zM919.893 654.080c5.547-20.053 9.387-46.933 11.947-81.067 2.987-34.133 4.267-63.573 4.267-89.173l2.56-35.84c0-93.44-6.827-162.133-18.773-206.080-10.667-38.4-35.413-63.147-73.813-73.813-20.053-5.547-56.747-9.387-113.067-11.947-55.467-2.987-106.24-4.267-153.173-4.267l-67.84-2.56c-178.773 0-290.133 6.827-334.080 18.773-38.4 10.667-63.147 35.413-73.813 73.813-5.547 20.053-9.387 46.933-11.947 81.067-2.987 34.133-4.267 63.573-4.267 89.173l-2.56 35.84c0 93.44 6.827 162.133 18.773 206.080 10.667 38.4 35.413 63.147 73.813 73.813 20.053 5.547 56.747 9.387 113.067 11.947 55.467 2.987 106.24 4.267 153.173 4.267l67.84 2.56c178.773 0 290.133-6.827 334.080-18.773 38.4-10.667 63.147-35.413 73.813-73.813z" />
<glyph unicode="mdi-volume-off" glyph-name="volume-off" d="M512 789.333l-89.173-89.173 89.173-89.173zM182.187 832l-54.187-54.187 201.813-201.813h-201.813v-256h170.667l213.333-213.333v287.147l181.333-181.76c-28.587-21.76-60.587-39.68-96-49.92v-88.32c58.88 13.653 112.213 40.533 157.013 77.227l87.467-87.040 54.187 54.187-384 384zM810.667 448c0-40.107-8.533-77.653-23.040-112.64l64.427-64.427c27.733 52.907 43.947 113.067 43.947 177.067 0 182.613-128 335.36-298.667 374.187v-87.893c123.307-36.693 213.333-151.040 213.333-286.293zM704 448c0 75.52-42.667 140.373-106.667 171.947v-94.293l104.533-104.533c2.133 8.533 2.133 17.92 2.133 26.88z" />
<glyph unicode="mdi-volume-high" glyph-name="volume-high" d="M597.333 822.187v-87.893c123.307-36.693 213.333-151.040 213.333-286.293s-90.027-249.173-213.333-285.867v-88.32c170.667 38.827 298.667 191.573 298.667 374.187s-128 335.36-298.667 374.187zM704 448c0 75.52-42.667 140.373-106.667 171.947v-342.613c64 30.293 106.667 95.573 106.667 170.667zM128 576v-256h170.667l213.333-213.333v682.667l-213.333-213.333h-170.667z" />
<glyph unicode="mdi-twitter" glyph-name="twitter" d="M958.293 704c-32.853-14.933-68.267-24.747-104.96-29.44 37.547 22.613 66.56 58.453 80.213 101.547-35.413-21.333-74.667-36.267-116.053-44.8-33.707 36.693-81.067 58.027-134.827 58.027-100.267 0-182.187-81.92-182.187-183.040 0-14.507 1.707-28.587 4.693-41.813-151.893 7.68-287.147 80.64-377.173 191.147-15.787-26.88-24.747-58.453-24.747-91.733 0-63.573 32-119.893 81.493-151.893-30.293 0-58.453 8.533-83.2 21.333 0 0 0 0 0-1.28 0-88.747 63.147-162.987 146.773-179.627-15.36-4.267-31.573-6.4-48.213-6.4-11.52 0-23.040 1.28-34.133 3.413 23.040-72.107 90.027-125.867 170.667-127.147-62.293-49.493-141.227-78.507-227.413-78.507-14.507 0-29.013 0.853-43.52 2.56 81.067-52.053 177.493-82.347 280.747-82.347 336.213 0 520.96 279.040 520.96 520.96 0 8.107 0 15.787-0.427 23.893 35.84 25.6 66.56 58.027 91.307 95.147z" />
<glyph unicode="mdi-tray-arrow-up" glyph-name="tray-arrow-up" d="M85.333 448h85.333v-213.333h682.667v213.333h85.333v-213.333c0-47.36-37.973-85.333-85.333-85.333h-682.667c-46.933 0-85.333 37.973-85.333 85.333v213.333zM512 874.667l-236.373-232.96 60.587-60.587 133.12 133.547v-394.667h85.333v394.667l133.547-133.547 60.587 61.013-236.8 232.533z" />
<glyph unicode="mdi-tray-arrow-down" glyph-name="tray-arrow-down" d="M85.333 448h85.333v-213.333h682.667v213.333h85.333v-213.333c0-47.36-37.973-85.333-85.333-85.333h-682.667c-46.933 0-85.333 37.973-85.333 85.333v213.333zM512 320l236.8 232.96-60.587 60.16-133.547-133.12v394.667h-85.333v-394.667l-133.12 133.12-60.587-60.587 236.373-232.533z" />
<glyph unicode="mdi-trash-can-outline" glyph-name="trash-can-outline" d="M384 832v-42.667h-213.333v-85.333h42.667v-554.667c0-47.128 38.205-85.333 85.333-85.333v0h426.667c47.128 0 85.333 38.205 85.333 85.333v0 554.667h42.667v85.333h-213.333v42.667h-256zM298.667 704h426.667v-554.667h-426.667v554.667zM384 618.667v-384h85.333v384h-85.333zM554.667 618.667v-384h85.333v384h-85.333z" />
<glyph unicode="mdi-translate-variant" glyph-name="translate-variant-1" d="M469.333 917.333h-341.333c-46.933 0-85.333-38.4-85.333-85.333v-512l128 128h213.333v42.667c0 93.867 76.373 170.667 170.667 170.667v170.667c0 46.933-38.4 85.333-85.333 85.333zM469.333 789.333h-64c-14.507-50.773-40.96-98.133-77.653-139.093l-0.853-0.853 53.76-53.333-15.787-43.093-66.133 65.707-106.667-106.667-29.44 31.147 107.947 106.24c-26.453 29.44-47.787 62.293-63.147 97.28h42.24c13.227-25.6 29.44-49.92 49.067-71.68 30.72 34.133 52.907 72.96 66.987 114.347h-237.653v42.667h149.333v42.667h42.667v-42.667h149.333v-42.667zM896 576h-341.333c-46.933 0-85.333-38.4-85.333-85.333v-298.667c0-46.933 38.4-85.333 85.333-85.333h298.667l128-128v512c0 46.933-38.4 85.333-85.333 85.333zM837.547 149.333l-36.267 96h-151.893l-35.84-96h-64l143.787 384h64l144.213-384h-64zM725.333 448l52.053-138.667h-103.68l51.627 138.667z" />
<glyph unicode="mdi-toggle-switch-outline" glyph-name="toggle-switch-outline" d="M725.333 704h-426.667c-141.227 0-256-114.773-256-256s114.773-256 256-256h426.667c141.227 0 256 114.773 256 256s-114.773 256-256 256zM725.333 277.333h-426.667c-94.293 0-170.667 76.373-170.667 170.667s76.373 170.667 170.667 170.667h426.667c94.293 0 170.667-76.373 170.667-170.667s-76.373-170.667-170.667-170.667zM725.333 576c-70.827 0-128-57.173-128-128s57.173-128 128-128 128 57.173 128 128-57.173 128-128 128z" />
<glyph unicode="mdi-toggle-switch-off-outline" glyph-name="toggle-switch-off-outline" d="M725.333 704h-426.667c-141.227 0-256-114.773-256-256s114.773-256 256-256h426.667c141.227 0 256 114.773 256 256s-114.773 256-256 256zM725.333 277.333h-426.667c-94.293 0-170.667 76.373-170.667 170.667s76.373 170.667 170.667 170.667h426.667c94.293 0 170.667-76.373 170.667-170.667s-76.373-170.667-170.667-170.667zM298.667 576c-70.827 0-128-57.173-128-128s57.173-128 128-128 128 57.173 128 128-57.173 128-128 128z" />
<glyph unicode="mdi-star-outline" glyph-name="star-outline" d="M512 303.36l-160.427-96.853 42.24 182.613-141.653 122.88 186.88 15.787 72.96 172.373 72.96-172.373 186.88-15.787-141.653-122.88 42.24-182.613zM938.667 565.76l-306.773 26.027-119.893 282.88-119.893-282.88-306.773-26.027 232.533-201.813-69.547-299.947 263.68 159.147 263.68-159.147-69.973 299.947 232.96 201.813z" />
<glyph unicode="mdi-sort-descending" glyph-name="sort-descending" d="M810.667 661.333h128l-170.667 170.667-170.667-170.667h128v-597.333h85.333zM85.333 234.667h426.667v-85.333h-426.667zM256 746.667v-85.333h-170.667v85.333zM85.333 490.667h298.667v-85.333h-298.667v85.333z" />
<glyph unicode="mdi-sort-ascending" glyph-name="sort-ascending" d="M810.667 234.667h128l-170.667-170.667-170.667 170.667h128v597.333h85.333zM85.333 234.667h426.667v-85.333h-426.667zM256 746.667v-85.333h-170.667v85.333zM85.333 490.667h298.667v-85.333h-298.667v85.333z" />
<glyph unicode="mdi-sort" glyph-name="sort" d="M768 64l-170.667 170.667h128v426.667h-128l170.667 170.667 170.667-170.667h-128v-426.667h128zM85.333 149.333v85.333h426.667v-85.333zM85.333 405.333v85.333h298.667v-85.333zM85.333 661.333v85.333h170.667v-85.333h-170.667z" />
<glyph unicode="mdi-replay" glyph-name="replay" d="M512 746.667v170.667l-213.333-213.333 213.333-213.333v170.667c141.385 0 256-114.615 256-256v0c0-141.385-114.615-256-256-256v0c-141.385 0-256 114.615-256 256v0h-85.333c0-188.513 152.82-341.333 341.333-341.333v0c188.513 0 341.333 152.82 341.333 341.333v0c0 188.513-152.82 341.333-341.333 341.333v0z" />
<glyph unicode="mdi-radiobox-marked" glyph-name="radiobox-marked" d="M512 106.667c-188.513 0-341.333 152.82-341.333 341.333v0c0 188.513 152.82 341.333 341.333 341.333v0c188.513 0 341.333-152.82 341.333-341.333v0c0-188.513-152.82-341.333-341.333-341.333v0zM512 874.667c-235.641 0-426.667-191.025-426.667-426.667v0c0-235.641 191.025-426.667 426.667-426.667v0c235.641 0 426.667 191.025 426.667 426.667v0c0 235.641-191.025 426.667-426.667 426.667v0zM512 661.333c-117.821 0-213.333-95.513-213.333-213.333v0c0-117.821 95.513-213.333 213.333-213.333v0c117.821 0 213.333 95.513 213.333 213.333v0c0 117.821-95.513 213.333-213.333 213.333v0z" />
<glyph unicode="mdi-radiobox-blank" glyph-name="radiobox-blank" d="M512 106.667c-188.513 0-341.333 152.82-341.333 341.333v0c0 188.513 152.82 341.333 341.333 341.333v0c188.513 0 341.333-152.82 341.333-341.333v0c0-188.513-152.82-341.333-341.333-341.333v0zM512 874.667c-235.641 0-426.667-191.025-426.667-426.667v0c0-235.641 191.025-426.667 426.667-426.667v0c235.641 0 426.667 191.025 426.667 426.667v0c0 235.641-191.025 426.667-426.667 426.667v0z" />
<glyph unicode="mdi-plus" glyph-name="plus" d="M810.667 405.333h-256v-256h-85.333v256h-256v85.333h256v256h85.333v-256h256v-85.333z" />
<glyph unicode="mdi-pencil-outline" glyph-name="pencil-outline" d="M599.893 576l40.107-40.107-387.413-386.56h-39.253v39.253l386.56 387.413zM753.493 832c-10.667 0-21.76-4.267-29.867-12.373l-78.080-78.080 160-160 78.080 78.080c16.64 16.64 16.64 44.373 0 60.16l-99.84 99.84c-8.533 8.533-19.2 12.373-30.293 12.373zM599.893 695.893l-471.893-471.893v-160h160l471.893 471.893-160 160z" />
<glyph unicode="mdi-open-in-new" glyph-name="open-in-new" d="M597.333 832v-85.333h153.173l-419.413-419.413 60.16-60.16 419.413 419.413v-153.173h85.333v298.667zM810.667 149.333h-597.333v597.333h298.667v85.333h-298.667c-47.36 0-85.333-38.4-85.333-85.333v-597.333c0-47.128 38.205-85.333 85.333-85.333v0h597.333c47.128 0 85.333 38.205 85.333 85.333v0 298.667h-85.333v-298.667z" />
<glyph unicode="mdi-minus" glyph-name="minus" d="M810.667 405.333h-597.333v85.333h597.333v-85.333z" />
<glyph unicode="mdi-microphone-outline" glyph-name="microphone-outline" d="M738.133 490.667c0-128-108.373-217.6-226.133-217.6s-226.133 89.6-226.133 217.6h-72.533c0-145.493 116.053-265.813 256-286.72v-139.947h85.333v139.947c139.947 20.907 256 141.227 256 286.72zM460.8 750.933c0 28.16 23.040 51.2 51.2 51.2s51.2-23.040 51.2-51.2l-0.427-264.533c0-28.16-22.613-51.2-50.773-51.2s-51.2 23.040-51.2 51.2zM512 362.667c70.692 0 128 57.308 128 128v0 256c0 70.692-57.308 128-128 128v0c-70.692 0-128-57.308-128-128v0-256c0-70.692 57.308-128 128-128v0z" />
<glyph unicode="mdi-microphone" glyph-name="microphone" d="M512 874.667c70.692 0 128-57.308 128-128v0-256c0-70.692-57.308-128-128-128v0c-70.692 0-128 57.308-128 128v0 256c0 70.692 57.308 128 128 128v0zM810.667 490.667c0-150.613-111.36-274.773-256-295.68v-130.987h-85.333v130.987c-144.64 20.907-256 145.067-256 295.68h85.333c0-117.821 95.513-213.333 213.333-213.333v0c117.821 0 213.333 95.513 213.333 213.333v0h85.333z" />
<glyph unicode="mdi-message-text-outline" glyph-name="message-text-outline" d="M853.333 874.667c47.128 0 85.333-38.205 85.333-85.333v0-512c0-47.128-38.205-85.333-85.333-85.333v0h-597.333l-170.667-170.667v768c0 47.36 38.4 85.333 85.333 85.333h682.667zM170.667 789.333v-561.92l49.92 49.92h632.747v512h-682.667zM256 661.333h512v-85.333h-512v85.333zM256 490.667h384v-85.333h-384v85.333z" />
<glyph unicode="mdi-menu" glyph-name="menu" d="M128 704h768v-85.333h-768v85.333zM128 490.667h768v-85.333h-768v85.333zM128 277.333h768v-85.333h-768v85.333z" />
<glyph unicode="mdi-magnify" glyph-name="magnify" d="M405.333 832c153.167 0 277.333-124.166 277.333-277.333v0c0-68.693-25.173-131.84-66.56-180.48l11.52-11.52h33.707l213.333-213.333-64-64-213.333 213.333v33.707l-11.52 11.52c-48.64-41.387-111.787-66.56-180.48-66.56-153.167 0-277.333 124.166-277.333 277.333v0c0 153.167 124.166 277.333 277.333 277.333v0zM405.333 746.667c-106.667 0-192-85.333-192-192s85.333-192 192-192c106.667 0 192 85.333 192 192s-85.333 192-192 192z" />
<glyph unicode="mdi-logout" glyph-name="logout" d="M682.667 234.667v128h-298.667v170.667h298.667v128l213.333-213.333-213.333-213.333zM597.333 874.667c47.128 0 85.333-38.205 85.333-85.333v0-85.333h-85.333v85.333h-384v-682.667h384v85.333h85.333v-85.333c0-47.128-38.205-85.333-85.333-85.333v0h-384c-47.128 0-85.333 38.205-85.333 85.333v0 682.667c0 47.128 38.205 85.333 85.333 85.333v0h384z" />
<glyph unicode="mdi-linkedin" glyph-name="linkedin" d="M810.667 832c47.128 0 85.333-38.205 85.333-85.333v0-597.333c0-47.128-38.205-85.333-85.333-85.333v0h-597.333c-47.128 0-85.333 38.205-85.333 85.333v0 597.333c0 47.128 38.205 85.333 85.333 85.333v0h597.333zM789.333 170.667v226.133c0 76.819-62.274 139.093-139.093 139.093v0c-36.267 0-78.507-22.187-98.987-55.467v47.36h-119.040v-357.12h119.040v210.347c0 32.853 26.453 59.733 59.307 59.733 32.99 0 59.733-26.744 59.733-59.733v0-210.347h119.040zM293.547 594.773c39.588 0 71.68 32.092 71.68 71.68v0c0 39.68-32 72.107-71.68 72.107-39.823 0-72.107-32.283-72.107-72.107v0c0-39.68 32.427-71.68 72.107-71.68zM352.853 170.667v357.12h-118.187v-357.12h118.187z" />
<glyph unicode="mdi-instagram" glyph-name="instagram" d="M332.8 874.667h358.4c136.533 0 247.467-110.933 247.467-247.467v-358.4c0-136.672-110.795-247.467-247.467-247.467v0h-358.4c-136.533 0-247.467 110.933-247.467 247.467v358.4c0 136.672 110.795 247.467 247.467 247.467v0zM324.267 789.333c-84.831 0-153.6-68.769-153.6-153.6v0-375.467c0-84.907 68.693-153.6 153.6-153.6h375.467c84.831 0 153.6 68.769 153.6 153.6v0 375.467c0 84.907-68.693 153.6-153.6 153.6h-375.467zM736 725.333c29.455 0 53.333-23.878 53.333-53.333v0c0-29.455-23.878-53.333-53.333-53.333v0c-29.455 0-53.333 23.878-53.333 53.333v0c0 29.455 23.878 53.333 53.333 53.333v0zM512 661.333c117.821 0 213.333-95.513 213.333-213.333v0c0-117.821-95.513-213.333-213.333-213.333v0c-117.821 0-213.333 95.513-213.333 213.333v0c0 117.821 95.513 213.333 213.333 213.333v0zM512 576c-70.692 0-128-57.308-128-128v0c0-70.692 57.308-128 128-128v0c70.692 0 128 57.308 128 128v0c0 70.692-57.308 128-128 128v0z" />
<glyph unicode="mdi-information-outline" glyph-name="information-outline" d="M469.333 576h85.333v85.333h-85.333zM512 106.667c-188.16 0-341.333 153.173-341.333 341.333s153.173 341.333 341.333 341.333c188.16 0 341.333-153.173 341.333-341.333s-153.173-341.333-341.333-341.333zM512 874.667c-235.641 0-426.667-191.025-426.667-426.667v0c0-235.641 191.025-426.667 426.667-426.667v0c235.641 0 426.667 191.025 426.667 426.667v0c0 235.641-191.025 426.667-426.667 426.667v0zM469.333 234.667h85.333v256h-85.333v-256z" />
<glyph unicode="mdi-filter-remove" glyph-name="filter-remove" d="M629.76 71.253l121.173 120.747-121.173 120.747 60.16 60.16 120.747-119.893 120.747 119.893 60.16-60.16-119.893-120.747 119.893-120.747-60.16-60.16-120.747 121.173-120.747-121.173-60.16 60.16zM512 448v-336.213c1.707-12.8-2.56-26.453-12.373-35.413-16.64-16.64-43.52-16.64-60.16 0l-85.76 85.76c-9.813 9.813-14.080 23.040-12.373 35.413v250.453h-1.28l-245.76 314.88c-14.507 18.347-11.093 45.227 7.253 59.733 8.107 5.973 17.067 9.387 26.453 9.387v0h597.333c9.387 0 18.347-3.413 26.453-9.387 18.347-14.507 21.76-41.387 7.253-59.733l-245.76-314.88h-1.28z" />
<glyph unicode="mdi-filter-outline" glyph-name="filter-outline" d="M640 111.787c1.707-12.8-2.56-26.453-12.373-35.413-16.64-16.64-43.52-16.64-60.16 0l-171.093 171.093c-9.813 9.813-14.080 23.040-12.373 35.413v218.453l-204.373 261.547c-14.507 18.347-11.093 45.227 7.253 59.733 8.107 5.973 17.067 9.387 26.453 9.387v0h597.333c9.387 0 18.347-3.413 26.453-9.387 18.347-14.507 21.76-41.387 7.253-59.733l-204.373-261.547v-389.547zM300.373 746.667l168.96-215.893v-235.52l85.333-85.333v321.28l168.96 215.467h-423.253z" />
<glyph unicode="mdi-filter" glyph-name="filter" d="M597.333 448v-336.213c1.707-12.8-2.56-26.453-12.373-35.413-16.64-16.64-43.52-16.64-60.16 0l-85.76 85.76c-9.813 9.813-14.080 23.040-12.373 35.413v250.453h-1.28l-245.76 314.88c-14.507 18.347-11.093 45.227 7.253 59.733 8.107 5.973 17.067 9.387 26.453 9.387v0h597.333c9.387 0 18.347-3.413 26.453-9.387 18.347-14.507 21.76-41.387 7.253-59.733l-245.76-314.88h-1.28z" />
<glyph unicode="mdi-facebook" glyph-name="facebook" d="M512 872.96c-234.667 0-426.667-191.573-426.667-427.52 0-213.333 156.16-390.4 360.107-422.4v298.667h-108.373v123.733h108.373v94.293c0 107.093 63.573 165.973 161.28 165.973 46.507 0 95.147-8.107 95.147-8.107v-105.387h-53.76c-52.907 0-69.547-32.853-69.547-66.56v-80.213h118.613l-19.2-123.733h-99.413v-298.667c205.281 33.318 360.108 209.3 360.108 421.443 0 0.336 0 0.673-0.001 1.009v-0.052c0 235.947-192 427.52-426.667 427.52z" />
<glyph unicode="mdi-eye-outline" glyph-name="eye-outline" d="M512 576c70.692 0 128-57.308 128-128v0c0-70.692-57.308-128-128-128v0c-70.692 0-128 57.308-128 128v0c0 70.692 57.308 128 128 128v0zM512 768c213.333 0 395.52-132.693 469.333-320-73.813-187.307-256-320-469.333-320s-395.52 132.693-469.333 320c73.813 187.307 256 320 469.333 320zM135.68 448c70.4-143.36 215.893-234.667 376.32-234.667s305.92 91.307 376.32 234.667c-70.4 143.36-215.893 234.667-376.32 234.667s-305.92-91.307-376.32-234.667z" />
<glyph unicode="mdi-eye-off-outline" glyph-name="eye-off-outline" d="M85.333 735.147l54.613 54.187 713.387-713.387-54.187-54.613-131.413 131.413c-49.067-16.213-101.12-24.747-155.733-24.747-213.333 0-395.52 132.693-469.333 320 29.44 75.093 76.373 141.227 136.107 193.707l-93.44 93.44zM512 576c70.692 0 128-57.308 128-128v0c0-14.933-2.56-29.44-7.253-42.667l-163.413 163.413c13.227 4.693 27.733 7.253 42.667 7.253zM512 768c213.333 0 395.52-132.693 469.333-320-34.987-88.747-94.293-165.547-170.667-221.44l-60.587 61.013c58.027 40.107 105.813 94.72 138.24 160.427-70.4 143.36-215.893 234.667-376.32 234.667-46.507 0-92.16-7.68-134.827-21.333l-65.707 65.28c61.44 26.453 129.28 41.387 200.533 41.387zM135.68 448c70.4-143.36 215.893-234.667 376.32-234.667 29.44 0 58.453 2.987 85.333 8.96l-97.28 97.707c-61.013 6.4-109.653 55.040-116.053 116.053l-145.067 145.493c-42.24-36.267-77.653-81.493-103.253-133.547z" />
<glyph unicode="mdi-email-outline" glyph-name="email-outline" d="M938.667 704c0 46.933-38.4 85.333-85.333 85.333h-682.667c-46.933 0-85.333-38.4-85.333-85.333v-512c0-46.933 38.4-85.333 85.333-85.333h682.667c46.933 0 85.333 38.4 85.333 85.333v512zM853.333 704l-341.333-213.333-341.333 213.333h682.667zM853.333 192h-682.667v426.667l341.333-213.333 341.333 213.333v-426.667z" />
<glyph unicode="mdi-drag-vertical" glyph-name="drag-vertical" d="M384 832h85.333v-85.333h-85.333v85.333zM554.667 832h85.333v-85.333h-85.333v85.333zM384 661.333h85.333v-85.333h-85.333v85.333zM554.667 661.333h85.333v-85.333h-85.333v85.333zM384 490.667h85.333v-85.333h-85.333v85.333zM554.667 490.667h85.333v-85.333h-85.333v85.333zM384 320h85.333v-85.333h-85.333v85.333zM554.667 320h85.333v-85.333h-85.333v85.333zM384 149.333h85.333v-85.333h-85.333v85.333zM554.667 149.333h85.333v-85.333h-85.333v85.333z" />
<glyph unicode="mdi-dots-vertical" glyph-name="dots-vertical" d="M512 277.333c47.128 0 85.333-38.205 85.333-85.333v0c0-47.128-38.205-85.333-85.333-85.333v0c-47.128 0-85.333 38.205-85.333 85.333v0c0 47.128 38.205 85.333 85.333 85.333v0zM512 533.333c47.128 0 85.333-38.205 85.333-85.333v0c0-47.128-38.205-85.333-85.333-85.333v0c-47.128 0-85.333 38.205-85.333 85.333v0c0 47.128 38.205 85.333 85.333 85.333v0zM512 789.333c47.128 0 85.333-38.205 85.333-85.333v0c0-47.128-38.205-85.333-85.333-85.333v0c-47.128 0-85.333 38.205-85.333 85.333v0c0 47.128 38.205 85.333 85.333 85.333v0z" />
<glyph unicode="mdi-dots-horizontal" glyph-name="dots-horizontal" d="M682.667 448c0 47.128 38.205 85.333 85.333 85.333v0c47.128 0 85.333-38.205 85.333-85.333v0c0-47.128-38.205-85.333-85.333-85.333v0c-47.128 0-85.333 38.205-85.333 85.333v0zM426.667 448c0 47.128 38.205 85.333 85.333 85.333v0c47.128 0 85.333-38.205 85.333-85.333v0c0-47.128-38.205-85.333-85.333-85.333v0c-47.128 0-85.333 38.205-85.333 85.333v0zM170.667 448c0 47.128 38.205 85.333 85.333 85.333v0c47.128 0 85.333-38.205 85.333-85.333v0c0-47.128-38.205-85.333-85.333-85.333v0c-47.128 0-85.333 38.205-85.333 85.333v0z" />
<glyph unicode="mdi-cog-outline" glyph-name="cog-outline" d="M512 618.667c94.257 0 170.667-76.41 170.667-170.667v0c0-94.257-76.41-170.667-170.667-170.667v0c-94.257 0-170.667 76.41-170.667 170.667v0c0 94.257 76.41 170.667 170.667 170.667v0zM512 533.333c-47.128 0-85.333-38.205-85.333-85.333v0c0-47.128 38.205-85.333 85.333-85.333v0c47.128 0 85.333 38.205 85.333 85.333v0c0 47.128-38.205 85.333-85.333 85.333v0zM426.667 21.333c-10.667 0-19.627 7.68-21.333 17.92l-15.787 113.067c-26.88 10.667-49.92 25.173-72.107 42.24l-106.24-43.093c-9.387-3.413-20.907 0-26.027 9.387l-85.333 147.627c-5.547 9.387-2.987 20.907 5.12 27.307l90.027 70.827-2.987 41.387 2.987 42.667-90.027 69.547c-8.107 6.4-10.667 17.92-5.12 27.307l85.333 147.627c5.12 9.387 16.64 13.227 26.027 9.387l106.24-42.667c22.187 16.64 45.227 31.147 72.107 41.813l15.787 113.067c1.707 10.24 10.667 17.92 21.333 17.92h170.667c10.667 0 19.627-7.68 21.333-17.92l15.787-113.067c26.88-10.667 49.92-25.173 72.107-41.813l106.24 42.667c9.387 3.84 20.907 0 26.027-9.387l85.333-147.627c5.547-9.387 2.987-20.907-5.12-27.307l-90.027-69.547 2.987-42.667-2.987-42.667 90.027-69.547c8.107-6.4 10.667-17.92 5.12-27.307l-85.333-147.627c-5.12-9.387-16.64-13.227-26.027-9.387l-106.24 42.667c-22.187-16.64-45.227-31.147-72.107-41.813l-15.787-113.067c-1.707-10.24-10.667-17.92-21.333-17.92h-170.667zM480 789.333l-15.787-111.36c-51.2-10.667-96.427-37.973-129.28-75.947l-102.827 44.373-32-55.467 90.027-66.133c-17.067-49.92-17.067-104.107 0-153.6l-90.453-66.56 32-55.467 103.68 44.373c32.853-37.547 77.653-64.853 128.427-75.093l15.787-111.787h64.853l15.787 111.36c50.773 10.667 95.573 37.973 128.427 75.52l103.68-44.373 32 55.467-90.453 66.133c17.067 49.92 17.067 104.107 0 154.027l90.027 66.133-32 55.467-102.827-44.373c-32.853 37.973-78.080 65.28-129.28 75.52l-15.787 111.787h-64z" />
<glyph unicode="mdi-cloud-arrow-up-outline" glyph-name="cloud-arrow-up-outline" d="M171.947 446.72c-29.44-29.013-43.947-64-43.947-105.387s14.507-76.373 43.947-106.667c29.013-28.16 64-42.667 105.387-42.667h281.173c-2.133-14.080-3.84-28.16-3.84-42.667s1.707-28.587 3.84-42.667h-281.173c-64 0-119.893 21.333-165.973 66.987-45.653 44.8-68.693 99.84-68.693 164.267 0 55.467 16.64 104.96 49.92 148.48s78.080 71.253 131.413 83.2c17.92 65.28 53.333 118.187 106.667 158.72s113.92 61.013 181.333 61.013c83.2 0 153.6-29.013 211.627-87.040s87.040-128.427 87.040-211.627c49.067-5.547 89.6-26.88 122.027-64 21.76-24.32 35.84-51.627 42.667-81.92-44.373 37.547-100.693 60.587-164.693 60.587-4.693 0-8.96 0-13.653 0-2.56 0-5.12 0-7.68 0h-64v85.333c0 58.88-21.333 109.227-62.293 151.040-41.813 40.96-92.16 62.293-151.040 62.293s-109.227-21.333-151.040-62.293c-40.96-41.813-62.293-92.16-62.293-151.040h-21.333c-41.387 0-76.373-14.507-105.387-43.947zM682.667 192h85.333v-170.667h85.333v170.667h85.333l-128 128-128-128z" />
<glyph unicode="mdi-close-circle-outline" glyph-name="close-circle-outline" d="M512 106.667c-188.16 0-341.333 153.173-341.333 341.333s153.173 341.333 341.333 341.333c188.16 0 341.333-153.173 341.333-341.333s-153.173-341.333-341.333-341.333zM512 874.667c-235.947 0-426.667-190.72-426.667-426.667s190.72-426.667 426.667-426.667c235.947 0 426.667 190.72 426.667 426.667s-190.72 426.667-426.667 426.667zM622.507 618.667l-110.507-110.507-110.507 110.507-60.16-60.16 110.507-110.507-110.507-110.507 60.16-60.16 110.507 110.507 110.507-110.507 60.16 60.16-110.507 110.507 110.507 110.507-60.16 60.16z" />
<glyph unicode="mdi-close" glyph-name="close" d="M810.667 686.507l-60.16 60.16-238.507-238.507-238.507 238.507-60.16-60.16 238.507-238.507-238.507-238.507 60.16-60.16 238.507 238.507 238.507-238.507 60.16 60.16-238.507 238.507 238.507 238.507z" />
<glyph unicode="mdi-circle-outline" glyph-name="account-circle-outline" d="M512 874.667c-235.641 0-426.667-191.025-426.667-426.667v0c0-235.641 191.025-426.667 426.667-426.667v0c235.641 0 426.667 191.025 426.667 426.667v0c0 235.641-191.025 426.667-426.667 426.667v0zM301.653 180.053c18.347 38.4 130.133 75.947 210.347 75.947s192-37.547 210.347-75.947c-58.027-46.080-130.987-73.387-210.347-73.387s-152.32 27.307-210.347 73.387zM783.36 241.92c-61.013 74.24-209.067 99.413-271.36 99.413s-210.347-25.173-271.36-99.413c-43.52 56.747-69.973 128.427-69.973 206.080 0 188.16 153.173 341.333 341.333 341.333s341.333-153.173 341.333-341.333c0-77.653-26.453-149.333-69.973-206.080zM512 704c-82.773 0-149.333-66.56-149.333-149.333s66.56-149.333 149.333-149.333c82.773 0 149.333 66.56 149.333 149.333s-66.56 149.333-149.333 149.333zM512 490.667c-35.346 0-64 28.654-64 64v0c0 35.346 28.654 64 64 64v0c35.346 0 64-28.654 64-64v0c0-35.346-28.654-64-64-64v0z" />
<glyph unicode="mdi-chevron-up" glyph-name="chevron-up" d="M316.16 302.507l195.84 195.413 195.84-195.413 60.16 60.16-256 256-256-256 60.16-60.16z" />
<glyph unicode="mdi-chevron-right" glyph-name="chevron-right" d="M366.507 252.587l195.413 195.413-195.413 195.84 60.16 60.16 256-256-256-256-60.16 60.587z" />
<glyph unicode="mdi-chevron-left" glyph-name="chevron-left" d="M657.493 252.587l-195.413 195.413 195.413 195.84-60.16 60.16-256-256 256-256 60.16 60.587z" />
<glyph unicode="mdi-chevron-down" glyph-name="chevron-down" d="M316.16 593.92l195.84-195.84 195.84 195.84 60.16-60.587-256-256-256 256 60.16 60.587z" />
<glyph unicode="mdi-checkbox-marked" glyph-name="checkbox-marked" d="M426.667 234.667l-213.333 213.333 60.16 60.587 153.173-153.173 323.84 323.84 60.16-60.587zM810.667 832h-597.333c-47.36 0-85.333-37.973-85.333-85.333v-597.333c0-47.128 38.205-85.333 85.333-85.333v0h597.333c47.128 0 85.333 38.205 85.333 85.333v0 597.333c0 47.36-38.4 85.333-85.333 85.333z" />
<glyph unicode="mdi-checkbox-blank-outline" glyph-name="checkbox-blank-outline" d="M810.667 832h-597.333c-47.36 0-85.333-37.973-85.333-85.333v-597.333c0-47.128 38.205-85.333 85.333-85.333v0h597.333c47.128 0 85.333 38.205 85.333 85.333v0 597.333c0 47.36-38.4 85.333-85.333 85.333zM810.667 746.667v-597.333h-597.333v597.333h597.333z" />
<glyph unicode="mdi-check-circle-outline" glyph-name="check-circle-outline" d="M512 874.667c-234.667 0-426.667-192-426.667-426.667s192-426.667 426.667-426.667 426.667 192 426.667 426.667-192 426.667-426.667 426.667zM512 106.667c-188.16 0-341.333 153.173-341.333 341.333s153.173 341.333 341.333 341.333 341.333-153.173 341.333-341.333-153.173-341.333-341.333-341.333zM707.84 636.587l-281.173-281.173-110.507 110.080-60.16-60.16 170.667-170.667 341.333 341.333-60.16 60.587z" />
<glyph unicode="mdi-check" glyph-name="check" d="M896 661.333l-512-512-234.667 234.667 60.16 60.16 174.507-174.080 451.84 451.413 60.16-60.16z" />
<glyph unicode="mdi-calendar-blank-outline" glyph-name="calendar-blank-outline" d="M810.667 832h-42.667v85.333h-85.333v-85.333h-341.333v85.333h-85.333v-85.333h-42.667c-47.36 0-85.333-38.4-85.333-85.333v-597.333c0-47.36 38.4-85.333 85.333-85.333h597.333c47.36 0 85.333 37.973 85.333 85.333v597.333c0 46.933-37.973 85.333-85.333 85.333zM810.667 149.333h-597.333v426.667h597.333v-426.667zM810.667 661.333h-597.333v85.333h597.333v-85.333z" />
<glyph unicode="mdi-bell-outline" glyph-name="bell-outline" d="M426.667 64h170.667c0-46.933-38.4-85.333-85.333-85.333s-85.333 38.4-85.333 85.333zM896 149.333v-42.667h-768v42.667l85.333 85.333v256c0 132.267 85.333 247.467 213.333 285.867v12.8c0 46.933 38.4 85.333 85.333 85.333s85.333-38.4 85.333-85.333v-12.8c128-38.4 213.333-153.6 213.333-285.867v-256l85.333-85.333zM725.333 490.667c0 119.467-93.867 213.333-213.333 213.333s-213.333-93.867-213.333-213.333v-298.667h426.667v298.667z" />
<glyph unicode="mdi-bell-badge-outline" glyph-name="bell-badge-outline" d="M810.667 234.667v221.867c-21.333-4.267-42.667-8.533-64-8.533h-21.333v-256h-426.667v298.667c0 119.467 93.867 213.333 213.333 213.333 4.267 55.467 29.867 102.4 64 140.8-12.8 17.067-38.4 29.867-64 29.867-46.933 0-85.333-38.4-85.333-85.333v-12.8c-128-38.4-213.333-153.6-213.333-285.867v-256l-85.333-85.333v-42.667h768v42.667l-85.333 85.333zM426.667 64c0-46.933 38.4-85.333 85.333-85.333s85.333 38.4 85.333 85.333h-170.667zM896 682.667c0-81.067-68.267-149.333-149.333-149.333s-149.333 68.267-149.333 149.333 68.267 149.333 149.333 149.333 149.333-68.267 149.333-149.333z" />
<glyph unicode="mdi-backburger" glyph-name="backburger" d="M213.333 405.333l170.667-170.667-59.733-60.587-273.92 273.92 273.92 273.92 59.733-60.587-170.667-170.667h682.667v-85.333h-682.667zM896 704v-85.333h-426.667v85.333h426.667zM896 277.333v-85.333h-426.667v85.333h426.667z" />
<glyph unicode="mdi-arrow-up" glyph-name="arrow-up" d="M554.667 106.667h-85.333v512l-234.667-234.667-60.587 60.587 337.92 337.92 337.92-337.92-60.587-60.587-234.667 234.667v-512z" />
<glyph unicode="mdi-arrow-right" glyph-name="arrow-right" d="M170.667 490.667v-85.333h512l-234.667-234.667 60.587-60.587 337.92 337.92-337.92 337.92-60.587-60.587 234.667-234.667h-512z" />
<glyph unicode="mdi-arrow-expand-vertical" glyph-name="arrow-expand-vertical" d="M554.667 576v-256h128l-170.667-170.667-170.667 170.667h128v256h-128l170.667 170.667 170.667-170.667h-128zM170.667 874.667h682.667v-85.333h-682.667v85.333zM170.667 106.667h682.667v-85.333h-682.667v85.333z" />
<glyph unicode="mdi-arrow-expand-left" glyph-name="arrow-expand-left" d="M853.333 21.333h85.333v853.333h-85.333v-384h-604.587l234.667 234.667-60.16 60.587-337.92-337.92 337.92-337.92 60.16 60.587-234.667 234.667h604.587v-384z" />
<glyph unicode="mdi-arrow-down" glyph-name="arrow-down" d="M469.333 789.333h85.333v-512l234.667 234.667 60.587-60.587-337.92-337.92-337.92 337.92 60.587 60.587 234.667-234.667v512z" />
<glyph unicode="mdi-arrow-collapse-vertical" glyph-name="arrow-collapse-vertical" d="M170.667 448h682.667v-85.333h-682.667v85.333zM170.667 576h682.667v-85.333h-682.667v85.333zM682.667 789.333l-170.667-170.667-170.667 170.667h128v128h85.333v-128h128zM341.333 149.333l170.667 170.667 170.667-170.667h-128v-128h-85.333v128h-128z" />
<glyph unicode="mdi-arrow-collapse-up" glyph-name="arrow-collapse-up" d="M174.080 451.413l337.92 337.92 337.92-337.92-60.587-60.16-234.667 234.667v-604.587h-85.333v604.587l-234.667-234.667-60.587 60.16zM512 789.333h426.667v85.333h-853.333v-85.333h426.667z" />
<glyph unicode="mdi-arrow-collapse-down" glyph-name="arrow-collapse-down" d="M849.92 444.587l-337.92-337.92-337.92 337.92 60.587 60.16 234.667-234.667v604.587h85.333v-604.587l234.667 235.093 60.587-60.587zM512 106.667h-426.667v-85.333h853.333v85.333h-426.667z" />
<glyph unicode="mdi-alert-outline" glyph-name="alert-outline" d="M512 874.667l-469.333-810.667h938.667zM512 704l321.28-554.667h-642.56zM469.333 533.333v-170.667h85.333v170.667zM469.333 277.333v-85.333h85.333v85.333z" />
<glyph unicode="mdi-alert-circle-outline" glyph-name="alert-circle-outline" d="M469.333 320h85.333v-85.333h-85.333v85.333zM469.333 661.333h85.333v-256h-85.333v256zM512 874.667c-235.947 0-426.667-192-426.667-426.667 0-235.641 191.025-426.667 426.667-426.667v0c235.641 0 426.667 191.025 426.667 426.667v0c0 235.641-191.025 426.667-426.667 426.667v0zM512 106.667c-188.513 0-341.333 152.82-341.333 341.333v0c0 188.513 152.82 341.333 341.333 341.333v0c188.513 0 341.333-152.82 341.333-341.333v0c0-188.513-152.82-341.333-341.333-341.333v0z" />
<glyph unicode="dailymotion" glyph-name="dailymotiodailymotion" d="M758 319.091c-13.576-13.575-28.849-23.757-45.818-30.545-16.121-6.788-33.939-10.182-53.455-10.182s-37.333 3.394-53.455 10.182c-16.121 6.788-30.545 16.545-43.272 29.272s-22.485 27.576-29.272 44.546c-5.94 16.97-8.91 35.636-8.91 56 0 19.516 2.97 37.333 8.91 53.455 6.787 16.121 16.97 30.545 30.545 43.272 12.727 12.727 27.152 22.061 43.272 28 16.121 6.788 33.94 10.182 53.455 10.182 12.727 0 25.030-1.697 36.91-5.091 11.878-2.545 22.909-6.787 33.091-12.727 11.030-5.939 20.364-13.151 28-21.636 8.484-7.636 15.697-16.97 21.636-28 5.939-10.181 10.182-21.212 12.727-33.091 3.394-11.030 5.091-22.485 5.091-34.364 0-20.364-3.394-39.030-10.182-56-6.788-16.121-16.545-30.546-29.272-43.273zM788.545 865.091v-225.273c-11.878 11.030-23.758 20.787-35.636 29.272s-24.182 15.272-36.909 20.364c-12.727 5.091-26.304 8.909-40.727 11.455s-29.697 3.818-45.818 3.818c-25.455 0-49.636-3.394-72.546-10.181-22.909-5.939-44.545-15.272-64.909-28s-38.607-28-54.727-45.818c-16.121-16.97-29.697-36.485-40.727-58.546-11.879-21.212-20.788-44.121-26.727-68.727-5.091-24.606-7.637-50.061-7.637-76.363 0-27.152 2.546-53.030 7.637-77.637 5.939-24.606 14.424-47.939 25.454-70 11.879-22.061 25.455-41.575 40.727-58.546 16.121-16.97 34.364-31.818 54.727-44.545 21.213-12.727 43.273-22.485 66.182-29.272 23.758-5.94 49.213-8.91 76.363-8.91 38.182 0 70.424 6.364 96.728 19.091 27.151 12.727 48.364 31.818 63.636 57.273h2.545v-70.001h154v766.182l-161.637-35.636z" />
</font>
</defs>
</svg>
